<svg width="262" height="54" viewBox="0 0 262 54" fill="none" xmlns="http://www.w3.org/2000/svg">
<g clip-path="url(#clip0_883_1680)">
<path d="M36.0777 0.818359C36.5362 1.29408 37.1792 1.16294 37.7325 1.28637C41.8373 2.1826 45.5232 4.43728 48.1984 7.68852C50.8737 10.9398 52.3833 14.999 52.4848 19.2148C52.6718 28.9401 47.3616 36.0554 37.9016 38.6603C37.6323 38.7095 37.3876 38.849 37.2075 39.0559C37.0274 39.2629 36.9226 39.525 36.9102 39.7995C35.8036 47.3082 28.8335 54.3644 19.2351 54.0044C18.0004 53.9607 16.7606 53.9401 15.5285 54.0198C14.596 54.0789 14.2938 53.8295 14.3066 52.8369C14.368 48.6222 14.3066 44.4024 14.3552 40.1852C14.3552 39.2929 14.1349 38.992 13.2256 38.7992C4.97462 37.0429 -0.491858 30.2259 -0.491858 21.776C-0.491858 20.3282 -0.432941 18.8779 -0.517474 17.4327C-0.568706 16.5044 -0.228012 16.309 0.635251 16.3167C4.76969 16.3578 8.90669 16.2961 13.0411 16.3604C14.1298 16.3784 14.3783 16.0441 14.3655 15.0052C14.3117 10.2763 14.3399 5.54732 14.3399 0.818359H36.0777ZM27.9933 5.96133C25.2447 5.96133 22.9853 6.00247 20.7285 5.94333C19.7756 5.91761 19.3888 6.10019 19.4247 7.17764C19.5143 9.85713 19.5169 12.5443 19.4247 15.2238C19.3888 16.2524 19.8064 16.489 20.6722 16.6381C28.8821 18.055 35.3553 24.4014 36.8103 32.5273C37.0024 33.6048 37.3406 33.6074 38.2115 33.2988C44.3389 31.1927 47.9098 25.3272 47.3334 18.253C46.8467 12.228 41.9335 7.06449 35.8062 6.14133C33.0396 5.72989 30.2654 6.08476 27.9933 5.96133ZM22.8495 34.0419C25.8441 34.0419 28.275 33.9828 30.7034 34.0702C31.828 34.1088 31.9253 33.7359 31.6973 32.7845C30.1194 26.2015 24.2994 21.5471 17.3754 21.4494C13.4971 21.3954 9.61626 21.4777 5.73798 21.4134C4.71334 21.3979 4.55964 21.7554 4.5955 22.6657C4.81836 28.0015 8.95024 32.8385 14.2246 33.8002C17.2678 34.3557 20.352 33.8851 22.8495 34.0419ZM25.611 39.154C23.8614 39.154 22.1144 39.154 20.3648 39.154C19.7807 39.154 19.4195 39.2003 19.4324 39.9538C19.4708 42.6821 19.4657 45.4105 19.4324 48.1362C19.4324 48.7791 19.6731 48.9077 20.2546 48.9205C25.196 49.0723 30.5421 44.9193 31.664 40.0721C31.851 39.2595 31.559 39.136 30.852 39.1489C29.1152 39.1772 27.3657 39.154 25.611 39.154Z" fill="#4D4FF6"/>
<path d="M202.9 0.81862C202.936 3.93783 201.245 6.18531 197.572 7.53534C199.309 7.53534 200.677 7.57905 202.039 7.51991C202.792 7.48648 202.959 7.75134 202.959 8.46107C202.935 17.9996 202.935 27.5381 202.959 37.0765C202.959 37.7837 202.787 38.028 202.05 38.0049C200.39 37.9509 198.72 37.9277 197.067 38.0049C196.117 38.0511 195.868 37.7914 195.876 36.822C195.92 29.1589 195.899 21.4934 195.899 13.8303C195.899 9.91482 195.899 5.99759 195.899 2.07865C195.899 1.65692 195.956 1.2352 195.986 0.813477L202.9 0.81862Z" fill="#060606"/>
<path d="M262.517 29.9681C261.748 30.7936 261.674 31.9147 261.287 32.897C260.519 34.8642 259.906 36.9034 259.089 38.8552C258.321 40.6809 256.999 41.3804 255.39 41.1206C254.768 41.0204 254.576 40.7529 254.581 40.1203C254.586 39.4877 254.909 39.498 255.375 39.4517C256.973 39.2897 257.44 38.5234 256.876 37.0808C255.9 34.5634 254.919 32.0484 253.93 29.5027C255.979 29.279 255.979 29.279 256.663 31.0456C257.217 32.4625 257.778 33.8742 258.444 35.5688C258.956 33.9771 259.399 32.6167 259.835 31.2539C260.46 29.2995 260.46 29.2995 262.517 29.4538V29.9681Z" fill="#060606"/>
<path d="M70.0883 11.2001C73.2698 7.1937 77.3274 6.35282 81.823 7.10113C86.5774 7.89571 89.2261 11.0432 90.4019 15.4945C91.7339 20.5294 91.8056 25.6287 90.2277 30.6148C87.5405 39.1213 77.0687 41.631 70.6314 35.3977C70.5212 35.2923 70.4059 35.192 70.119 34.9349C70.119 39.0004 70.0806 42.8525 70.1446 46.702C70.1626 47.7306 69.9346 48.1086 68.8382 48.0417C67.1809 47.9414 65.5081 47.9877 63.8533 48.0417C63.1335 48.0572 62.9209 47.8232 62.9209 47.0929C62.9448 34.1463 62.9448 21.2031 62.9209 8.26344C62.9209 7.60771 63.072 7.38142 63.7585 7.39942C65.591 7.4457 67.4234 7.4457 69.2558 7.39942C69.9423 7.38142 70.137 7.59999 70.0934 8.26344C70.0447 9.12746 70.0883 10.0223 70.0883 11.2001ZM83.9569 22.7846C83.9978 20.9846 83.9107 19.2102 83.4292 17.4668C82.6223 14.5533 80.9598 13.2495 77.686 12.9744C74.648 12.7172 72.1811 13.9001 71.2 16.4613C69.5956 20.507 69.5956 25.0159 71.2 29.0616C72.2554 31.7797 74.6761 32.8494 78.1779 32.5408C80.9598 32.2837 82.6556 30.8539 83.424 28.1076C83.921 26.3564 83.9978 24.5769 83.9569 22.7846Z" fill="#060606"/>
<path d="M160.754 8.95767C162.865 7.95736 164.958 7.36077 167.215 7.38135C174.244 7.44049 180.061 12.982 180.207 20.0048C180.325 25.752 180.207 31.5044 180.253 37.2569C180.253 38.0592 179.93 38.1492 179.277 38.1337C177.658 38.1029 176.034 38.072 174.41 38.1337C173.562 38.1697 173.452 37.8406 173.457 37.1051C173.485 31.525 173.503 25.9423 173.457 20.3622C173.432 18.8317 172.857 17.3619 171.839 16.2226C170.82 15.0832 169.427 14.3508 167.914 14.1598C164.96 13.7483 162.022 15.6307 161.067 18.5313C160.832 19.3052 160.721 20.1115 160.739 20.9202C160.739 26.202 160.698 31.4864 160.78 36.7683C160.798 37.9614 160.429 38.1929 159.358 38.1234C157.954 38.0283 156.546 38.0283 155.142 38.1234C154.145 38.1903 153.961 37.8663 153.966 36.92C154.004 28.6115 153.989 20.3056 153.989 11.9997C153.989 8.67737 154.015 5.35244 153.968 2.03009C153.968 1.21493 154.15 0.929491 155.009 0.970635C156.581 1.04264 158.164 1.04521 159.737 0.970635C160.618 0.929491 160.78 1.2535 160.762 2.04809C160.721 4.31614 160.754 6.56361 160.754 8.95767Z" fill="#060606"/>
<path d="M127.614 28.3901C128.039 28.3901 128.467 28.421 128.895 28.3901C130.109 28.2898 131.136 28.1921 131.231 29.9896C131.298 31.2599 132.448 32.0236 133.601 32.4402C136.103 33.3753 138.854 33.3926 141.368 32.489C142.533 32.0776 143.506 31.3884 143.558 29.9638C143.609 28.5392 142.789 27.6932 141.59 27.1095C139.585 26.1272 137.379 25.7775 135.263 25.1397C133.268 24.5406 131.241 24.0366 129.372 23.1083C126.403 21.6477 124.627 19.4028 124.635 15.9904C124.643 12.578 126.275 10.076 129.31 8.68739C134.569 6.27276 139.961 6.16733 145.274 8.51252C148.228 9.81627 149.949 12.1126 149.918 15.5095C149.918 16.2347 149.662 16.4584 148.95 16.4378C147.203 16.389 145.456 16.4198 143.706 16.4378C143.317 16.4378 142.969 16.4918 142.922 15.8978C142.774 14.0206 141.465 13.1926 139.849 12.7709C137.861 12.2179 135.752 12.3006 133.813 13.0075C132.732 13.4086 131.833 14.0695 131.792 15.3732C131.751 16.677 132.655 17.271 133.67 17.6876C136.393 18.8036 139.264 19.4645 142.087 20.2591C143.399 20.6147 144.683 21.0641 145.93 21.604C148.809 22.8897 150.569 24.9675 150.725 28.2332C150.894 31.8076 149.862 34.788 146.627 36.6986C144.677 37.848 142.528 38.334 140.302 38.55C136.716 38.8972 133.129 38.8072 129.743 37.3723C126.298 35.9065 124.154 33.4354 123.928 29.5473C123.877 28.6884 124.107 28.2924 125.05 28.385C125.901 28.457 126.761 28.3901 127.614 28.3901Z" fill="#060606"/>
<path d="M120.949 17.7697C120.852 20.4698 121.144 23.7561 120.798 27.0271C120.076 33.8543 113.912 38.9716 106.809 38.6785C100.033 38.3982 94.2571 32.5712 94.193 25.821C94.1264 19.9838 94.193 14.1465 94.1623 8.30922C94.1623 7.59692 94.3313 7.36034 95.0691 7.38606C96.7316 7.44006 98.3992 7.45034 100.057 7.38606C100.907 7.35006 101.104 7.61749 101.099 8.44294C101.061 13.9408 101.076 19.436 101.079 24.9313C101.079 28.8631 103.768 31.756 107.444 31.8023C111.184 31.8486 114.01 28.9917 114.043 25.0162C114.086 19.5209 114.074 14.0231 114.043 8.5278C114.043 7.67406 114.186 7.33463 115.129 7.38349C116.745 7.46835 118.369 7.45034 119.996 7.38349C120.788 7.3552 121 7.59435 120.987 8.38379C120.921 11.3127 120.949 14.2519 120.949 17.7697Z" fill="#060606"/>
<path d="M205.907 28.0583C205.907 25.4585 205.907 22.8588 205.907 20.2616C206.008 16.7883 207.452 13.4908 209.933 11.0676C212.413 8.64436 215.736 7.28567 219.198 7.27932C222.659 7.27297 225.987 8.61945 228.477 11.0336C230.966 13.4477 232.422 16.7398 232.535 20.2127C232.569 25.8366 232.535 31.4604 232.564 37.0842C232.564 37.9405 232.336 38.1771 231.5 38.1411C229.963 38.0794 228.427 38.064 226.89 38.1411C225.911 38.1925 225.609 37.9405 225.609 36.9042C225.665 31.3241 225.655 25.744 225.629 20.1639C225.607 18.6136 225.03 17.123 224.006 15.963C222.981 14.803 221.576 14.0507 220.045 13.8427C218.514 13.6347 216.96 13.985 215.665 14.8297C214.37 15.6745 213.42 16.9577 212.988 18.4461C212.801 19.1894 212.721 19.9559 212.752 20.7219C212.752 26.122 212.726 31.5427 212.78 36.9531C212.78 37.9277 212.524 38.1925 211.579 38.1411C210.006 38.0562 208.423 38.0717 206.848 38.1411C206.028 38.1771 205.861 37.884 205.872 37.1279C205.933 34.1064 205.907 31.0824 205.907 28.0583Z" fill="#060606"/>
<path d="M237.928 37.4189C237.928 38.3292 237.879 39.1366 237.943 39.9338C238.007 40.731 237.81 41.0601 236.918 41.0241C236.15 40.9907 235.812 40.9084 235.83 39.9955C235.891 36.758 235.85 33.5205 235.858 30.283C235.858 29.8484 235.686 29.2364 236.475 29.347C237.067 29.4293 238.012 28.8661 237.997 30.1519C240.94 28.1281 243.52 29.3033 243.927 32.8057C244.015 33.5673 243.998 34.3374 243.876 35.0943C243.415 38.0566 240.999 39.2087 238.414 37.6812C238.284 37.6092 238.145 37.5372 237.928 37.4189ZM241.873 33.7982C241.85 33.4125 241.842 33.0731 241.806 32.7362C241.688 31.6819 241.171 31.0159 240.036 30.9619C238.901 30.9079 238.263 31.4762 238.038 32.5048C237.837 33.3746 237.852 34.2805 238.081 35.1431C238.356 36.128 239.029 36.6269 240.054 36.5652C241.079 36.5034 241.668 35.912 241.793 34.8886C241.839 34.5054 241.85 34.13 241.873 33.7982Z" fill="#060606"/>
<path d="M252.636 34.5049C252.636 35.356 252.665 36.2097 252.621 37.0558C252.603 37.4235 252.921 38.0432 252.285 38.0972C251.742 38.1409 250.951 38.4649 250.651 37.8941C250.372 37.3643 250.3 37.5675 249.993 37.7604C249.192 38.2635 248.231 38.4427 247.303 38.2618C246.132 38.0664 245.313 37.4903 245.167 36.256C245.021 35.0217 245.484 34.006 246.673 33.4274C247.613 32.9748 248.635 32.9131 249.649 32.7948C249.975 32.7562 250.497 33.0365 250.556 32.422C250.605 31.9077 250.618 31.3934 250.136 31.0282C249.496 30.5525 248.171 30.7351 247.698 31.3676C247.313 31.8819 245.892 32.2702 245.705 31.8819C245.395 31.2365 245.705 30.6476 246.171 30.1642C247.352 28.9067 250.595 28.8116 251.86 29.9919C252.11 30.2241 252.306 30.5083 252.435 30.8245C252.565 31.1407 252.624 31.4814 252.608 31.8228C252.608 32.7151 252.608 33.6074 252.608 34.4997L252.636 34.5049ZM248.635 36.6238C249.734 36.598 250.523 35.8317 250.572 34.8237C250.605 34.114 250.167 34.2426 249.747 34.2503C248.21 34.2837 247.154 34.8494 247.242 35.6543C247.329 36.4592 247.938 36.652 248.635 36.6315V36.6238Z" fill="#060606"/>
<path d="M187.505 25.6228C186.57 25.5328 185.084 26.1114 184.388 25.4222C183.691 24.733 184.195 23.2493 184.185 22.1178C184.157 19.1118 184.185 19.1118 187.187 19.1118C188.335 19.1118 189.493 19.1452 190.633 19.1118C191.281 19.0861 191.527 19.2609 191.506 19.9552C191.455 21.5701 191.455 23.1859 191.506 24.8025C191.529 25.4916 191.296 25.6793 190.64 25.6485C189.664 25.5868 188.683 25.6228 187.505 25.6228Z" fill="#060606"/>
</g>
<defs>
<clipPath id="clip0_883_1680">
<rect width="262" height="53" fill="white" transform="translate(0 0.922852)"/>
</clipPath>
</defs>
</svg>
